<svg width="286" height="60" xmlns="http://www.w3.org/2000/svg" fill="none">

 <g>
  <title>Layer 1</title>
  <text transform="matrix(2.04885 0 0 2.04885 -29.3679 -1.29667)" stroke="null" font-weight="normal" xml:space="preserve" text-anchor="start" font-family="'Alegreya'" font-size="30" stroke-width="0" id="svg_6" y="24.57153" x="21.16691" fill="#000000">U</text>
  <text xml:space="preserve" text-anchor="start" font-family="'Alegreya'" font-size="30" stroke-width="0" id="svg_7" y="26.5" x="57" fill="#000000">sts</text>
  <text transform="matrix(2.1455 0 0 2.1455 -145.585 -6.58055)" stroke="null" xml:space="preserve" text-anchor="start" font-family="'Alegreya'" font-size="30" id="svg_8" y="26.77948" x="113.89198" stroke-width="0" fill="#000000">S</text>
  <text transform="matrix(0.914855 0 0 0.914855 10.8986 -0.381296)" stroke="null" xml:space="preserve" text-anchor="start" font-family="'Alegreya'" font-size="30" id="svg_9" y="29.77921" x="133.46535" stroke-width="0" fill="#000000">hop</text>
  <ellipse ry="8" rx="10.5" id="svg_14" cy="29.5" cx="233.5" stroke="null" fill="#4C261D"/>
  <ellipse ry="8" rx="10.5" id="svg_16" cy="29.5" cx="219.5" stroke="null" fill="#4C261D"/>
  <path id="svg_22" d="m211,25.5c0,0 -14,19 -25,7c-11,-12 7,37 41,3" opacity="NaN" stroke-width="0" stroke="null" fill="#4C261D"/>
  <path stroke="null" id="svg_23" d="m211,25.5c0,0 -14,19 -25,7c-11,-12 7,37 41,3" opacity="NaN" stroke-width="0" fill="#4C261D"/>
  <path stroke="null" id="svg_25" d="m242.70017,26.5c0,0 13.54149,19 24.18124,7c10.63975,-12 -6.77075,37 -39.65723,3" opacity="NaN" stroke-width="0" fill="#4C261D"/>
 </g>
</svg>